PathFileType	4	(X/Y/Z)	C:/Users/opensim2020/Desktop/walking_exp_matlab/subject06_walking19_straight_02.trc	
DataRate	CameraRate	NumFrames	NumMarkers	Units	OrigDataRate	OrigDataStartFrame	OrigNumFrames	
100.00	100.00	8	49	mm	100.00	2317	332	
Frame#	Time	LFHD			RFHD			LBHD			RBHD			C7			T10			CLAV			STRN			RBAK			LSHO			LUPA			LELB			LFRM			LWRA			LWRB			LFIN			RSHO			RUPA			RELB			RFRM			RWRA			RWRB			RFIN			LASI			RASI			LPSI			RPSI			LTHI			LKNE			LTIB			LANK			LHEE			LTOE			RTHI			RKNE			RTIB			RANK			RHEE			RTOE			*39			*40			*41			*42			*43			*44			*45			*46			*47			*48			
		X1	Y1	Z1	X2	Y2	Z2	X3	Y3	Z3	X4	Y4	Z4	X5	Y5	Z5	X6	Y6	Z6	X7	Y7	Z7	X8	Y8	Z8	X9	Y9	Z9	X10	Y10	Z10	X11	Y11	Z11	X12	Y12	Z12	X13	Y13	Z13	X14	Y14	Z14	X15	Y15	Z15	X16	Y16	Z16	X17	Y17	Z17	X18	Y18	Z18	X19	Y19	Z19	X20	Y20	Z20	X21	Y21	Z21	X22	Y22	Z22	X23	Y23	Z23	X24	Y24	Z24	X25	Y25	Z25	X26	Y26	Z26	X27	Y27	Z27	X28	Y28	Z28	X29	Y29	Z29	X30	Y30	Z30	X31	Y31	Z31	X32	Y32	Z32	X33	Y33	Z33	X34	Y34	Z34	X35	Y35	Z35	X36	Y36	Z36	X37	Y37	Z37	X38	Y38	Z38	X39	Y39	Z39	X40	Y40	Z40	X41	Y41	Z41	X42	Y42	Z42	X43	Y43	Z43	X44	Y44	Z44	X45	Y45	Z45	X46	Y46	Z46	X47	Y47	Z47	X48	Y48	Z48	X49	Y49	Z49	

125	1.240	-952.39594	532.69989	1658.11792	-1083.52307	516.46161	1653.02039	-969.71741	658.38141	1590.51746	-1097.72693	640.70416	1590.35278	-1023.22284	640.92841	1441.49719	-1030.48596	666.70349	1112.84473	-1020.10815	528.70587	1368.48865	-1019.77991	484.28583	1194.00745	-1109.49817	706.28271	1272.75244	-859.77466	588.69226	1397.09546	-788.55298	627.14258	1201.64331	-780.28540	654.16333	1092.25110	-763.14453	660.52515	940.57495	-812.22101	631.56903	817.64264	-767.94861	687.53320	824.31860	-774.20569	665.71069	735.63068	-1181.51611	567.39539	1400.20215	-1274.09937	573.55444	1200.96765	-1288.01184	543.66992	1082.60486	-1302.69043	499.41769	970.83270	-1263.75488	409.03458	851.60492	-1308.64136	457.71985	839.61432	-1307.44653	402.54910	776.31061	-931.77710	476.25891	964.69238	-1149.58325	493.15799	960.44922	-945.84009	633.30414	983.72559	-1112.83020	640.62830	982.71326	-858.80109	508.05301	649.20557	-879.75494	488.83069	486.76599	-888.55219	476.28976	230.95959	-932.02020	440.97226	61.33138	-981.53003	472.88556	45.51113	-930.33612	292.67679	43.88959	-1199.22815	585.23376	623.92877	-1182.72681	601.16833	497.06775	-1181.72437	772.77863	288.06757	-1142.30115	887.16669	138.08757	-1100.77136	934.99872	139.72934	-1121.28198	779.25037	30.37191	-1022.06384	629.00446	1688.83630																											 
126	1.250	-950.56482	526.66022	1658.95007	-1081.72803	510.70120	1653.98486	-967.71582	652.34082	1591.30493	-1095.70374	634.84674	1591.18652	-1021.37781	634.60144	1442.05713	-1028.76135	659.72797	1113.53162	-1018.33234	522.22601	1369.45520	-1018.00275	477.30029	1195.05945	-1107.80798	699.56305	1273.31177	-858.08319	582.21198	1398.03430	-786.37494	619.07166	1202.42944	-777.48315	645.58905	1092.79285	-760.41364	650.14136	941.14801	-809.80219	621.38867	818.17706	-765.38995	675.80646	824.42285	-771.10522	653.40759	736.02325	-1179.67542	561.10950	1401.19763	-1272.42175	567.22772	1202.04993	-1286.00818	538.24158	1083.42126	-1300.77405	494.54108	971.38989	-1262.06702	404.68060	851.62286	-1306.78479	453.58261	839.92603	-1305.57202	398.84424	776.14001	-929.76062	469.26657	965.59656	-1147.45020	485.89795	961.26514	-944.16614	626.29901	984.70380	-1111.02271	633.36237	983.33813	-857.40485	503.86133	649.62384	-878.51154	485.41550	487.01779	-888.48999	474.11169	231.32121	-932.19122	440.23737	61.44152	-981.48163	472.72327	45.64574	-932.09222	291.88959	43.37760	-1198.46350	576.12549	624.34894	-1182.83936	590.43518	497.17734	-1181.70374	764.91687	291.05878	-1142.69128	881.86786	142.98444	-1100.96509	929.07037	146.34618	-1121.04773	778.78699	30.55343	-1019.93500	622.99615	1689.57739																											 
127	1.260	-948.64191	520.77301	1659.76880	-1079.81885	504.82159	1654.80554	-965.66101	646.27740	1591.86011	-1093.97827	629.27234	1591.90063	-1019.52454	628.28186	1442.56702	-1026.95923	652.71582	1114.03784	-1016.59058	515.69312	1370.30054	-1016.26721	470.40979	1196.01978	-1105.98804	692.91980	1273.78528	-856.39215	575.75092	1398.85522	-784.17877	611.05786	1203.11963	-775.14209	636.32684	1093.29639	-757.28705	639.71008	941.72552	-806.56586	608.90265	819.04840	-761.76526	664.30420	825.00580	-768.03680	640.66425	736.51910	-1177.87402	554.89233	1402.01465	-1270.76819	561.09558	1202.93542	-1284.04102	532.73279	1084.13184	-1298.90295	489.69711	971.81622	-1260.39600	400.38220	851.54468	-1305.14771	449.48404	840.22021	-1303.71997	395.11386	775.84296	-927.84644	462.43573	966.26392	-1145.38379	478.83688	962.04388	-942.24194	619.16217	985.51251	-1109.21863	626.32501	983.90118	-856.00806	499.69650	649.86456	-877.39435	481.70389	487.19263	-888.48889	472.10672	231.42029	-932.49011	439.61349	61.54943	-981.63867	472.42960	45.74056	-933.05493	291.33249	42.84827	-1197.74109	566.70172	624.65814	-1183.04065	579.53003	497.24088	-1181.75476	756.63171	294.12598	-1143.06287	876.45984	148.25070	-1101.14539	922.75610	153.06110	-1120.86597	778.21503	30.90029	-1017.96143	617.25061	1690.29431																											 
128	1.270	-946.78424	514.80426	1660.36926	-1077.98157	499.11148	1655.54614	-963.72540	640.37262	1592.34607	-1091.73376	623.14966	1592.37097	-1017.75189	621.95001	1442.97681	-1025.11292	645.90454	1114.52844	-1014.89978	509.21603	1370.99707	-1014.56104	463.56744	1196.81458	-1104.03088	686.28467	1274.09619	-854.72729	569.34387	1399.56165	-781.96466	603.29529	1203.69373	-772.51422	627.49115	1093.70227	-754.47278	629.15381	942.14240	-803.54321	596.96448	819.72510	-758.72620	652.37408	825.09961	-764.80579	627.65045	736.93573	-1176.12756	548.72351	1402.65320	-1269.11548	555.19604	1203.66895	-1282.06213	527.20398	1084.67285	-1297.03564	484.85294	972.10797	-1258.65845	396.02432	851.32855	-1303.36682	445.41400	840.27478	-1301.82166	391.49631	775.42432	-925.81531	455.76544	966.65582	-1143.36389	471.96793	962.76849	-940.32788	612.24231	986.16931	-1107.33838	619.55017	984.34424	-854.56061	495.29367	650.15771	-876.27789	477.98105	487.24677	-888.28949	470.32294	231.40463	-932.68793	439.17120	61.53360	-981.78772	472.17590	45.90407	-933.31934	291.04709	42.31455	-1197.25916	557.18402	624.74084	-1183.32642	568.29132	497.26569	-1181.93298	747.97510	297.14960	-1143.51599	869.96790	153.06554	-1101.39368	915.96051	159.71527	-1120.89575	777.14136	31.73835	-1015.93811	611.45898	1690.76526																											 
129	1.280	-944.94824	508.99246	1660.90723	-1076.16772	493.43707	1656.18640	-961.77118	634.32898	1592.53479	-1089.83984	617.31549	1592.71021	-1015.92822	615.64532	1443.31140	-1023.27216	639.15649	1114.86523	-1013.23132	502.91473	1371.50635	-1012.81110	456.81793	1197.43579	-1101.93030	679.83820	1274.29419	-853.01459	562.89648	1400.09119	-779.74933	595.44629	1204.10400	-769.89838	618.69543	1093.97717	-751.50757	618.51599	942.40381	-800.68103	584.69263	820.46704	-756.10883	640.10297	824.92047	-761.51807	614.39459	737.31158	-1174.40076	542.64801	1403.12927	-1267.39917	549.35522	1204.18677	-1280.09290	521.65515	1085.04602	-1295.14795	479.97562	972.25360	-1256.87830	391.57001	851.01776	-1301.58398	441.33792	840.14874	-1299.86279	387.91574	774.77960	-923.98651	449.40591	966.93372	-1141.51111	465.17038	963.43182	-938.58362	605.73804	986.65314	-1105.52612	612.86896	984.61615	-853.18280	490.57715	650.40009	-874.99329	474.41977	487.25491	-887.90344	468.77979	231.33426	-932.82654	438.77148	61.44214	-981.83954	471.94836	46.00272	-933.37469	290.86166	41.96228	-1196.71936	547.35028	624.66138	-1183.74316	557.44458	497.50705	-1182.17590	738.84430	300.14285	-1144.39307	864.12561	158.71774	-1102.04285	908.95001	166.48050	-1120.75830	775.30463	33.16798	-1013.95190	605.74695	1691.10132																											 
130	1.290	-943.05743	503.22803	1661.32336	-1074.30945	487.75803	1656.76233	-959.81757	628.36096	1592.61145	-1087.88623	611.40375	1592.94580	-1014.14172	609.43433	1443.60999	-1021.50635	632.43982	1115.14551	-1011.56805	496.44125	1371.98535	-1011.13696	450.18637	1197.90247	-1099.77246	673.56854	1274.42664	-851.30908	556.39545	1400.51050	-777.46045	587.58899	1204.37415	-767.21637	609.75232	1094.03125	-748.54547	607.75513	942.54846	-797.42480	572.29480	821.00537	-752.99799	627.74139	824.73376	-758.11597	600.90991	737.55066	-1172.72070	536.62695	1403.43396	-1265.69238	543.64069	1204.45117	-1278.19666	516.19507	1085.23425	-1293.31335	475.16666	972.23450	-1255.09436	387.26141	850.59424	-1299.70874	437.30188	839.77814	-1298.06079	384.18039	774.24860	-922.20367	443.19070	967.15375	-1139.78650	458.50397	963.94025	-937.16791	600.08215	987.20227	-1103.82483	606.34100	984.78333	-851.90027	485.50516	650.59186	-873.62830	470.83618	487.31821	-887.23895	467.34659	231.37169	-932.85815	438.10150	61.51299	-981.82184	471.83826	46.09697	-933.54443	290.66946	41.69270	-1196.13318	537.60107	624.72241	-1183.92456	545.69696	497.24591	-1182.45581	729.20209	302.96707	-1144.83276	857.00006	163.72134	-1102.74048	901.60541	173.37325	-1120.97192	772.87268	35.11180	-1012.01239	600.19330	1691.33936																											 
131	1.300	-941.18909	497.51498	1661.73120	-1072.49902	482.12610	1657.33533	-957.94128	622.45056	1592.54260	-1086.03137	605.62817	1593.02771	-1012.32770	603.07318	1443.88184	-1019.73804	625.96680	1115.35254	-1009.99408	490.01657	1372.37854	-1009.44092	443.78918	1198.17114	-1097.59229	667.31335	1274.49683	-849.60651	549.91980	1400.83203	-775.22534	579.67731	1204.47485	-764.51099	600.84497	1093.94519	-745.54089	596.92706	942.51508	-794.09845	559.72668	821.42444	-749.89423	615.44220	824.46844	-754.63928	587.22797	737.74500	-1171.11902	530.68768	1403.61316	-1263.99438	538.12323	1204.58423	-1276.36255	510.82114	1085.27441	-1291.47900	470.40485	972.07922	-1253.29443	383.68039	849.77673	-1297.95227	433.26157	839.38953	-1296.26172	380.48074	773.54675	-920.33374	437.02728	967.36298	-1138.06348	451.84698	964.34235	-935.57239	593.92023	987.31226	-1102.38452	599.95013	984.88043	-850.96216	480.48788	650.86829	-872.29358	467.41183	487.48798	-886.41534	465.75665	231.43021	-932.72278	437.73798	61.55113	-981.75671	471.75443	46.21260	-933.83356	290.58206	41.39576	-1195.50696	527.80524	624.80786	-1183.92480	534.29645	497.27826	-1182.63892	719.24524	305.60672	-1145.43140	849.84613	169.01884	-1103.44226	893.95148	180.28189	-1121.20850	769.95715	36.97671	-1010.08490	594.70880	1691.44385																											 
132	1.310	-939.40399	491.84232	1662.06641	-1070.66455	476.49951	1657.86975	-956.10486	616.49103	1592.46484	-1084.22974	599.79480	1593.15894	-1010.58258	596.86371	1444.23315	-1018.24805	620.00482	1115.79224	-1008.43298	483.74100	1372.66541	-1007.73218	437.51785	1198.45935	-1095.43030	661.29529	1274.58923	-847.89429	543.38318	1401.07776	-772.97260	571.73193	1204.42554	-761.83844	591.75507	1093.71472	-742.61316	585.99939	942.42908	-790.58356	547.15985	821.71960	-746.78101	603.13916	824.34198	-751.15240	573.33307	737.91388	-1169.58179	524.76715	1403.71008	-1262.26086	532.68921	1204.55469	-1274.59192	505.67111	1085.18896	-1289.66443	465.74347	971.80957	-1251.40344	379.83789	848.96722	-1296.36182	429.32028	839.00531	-1294.52466	376.93903	772.88409	-918.44153	430.89389	967.60931	-1136.39551	445.34009	964.62531	-934.46930	588.07428	987.71094	-1101.16602	593.56812	984.94702	-849.58130	475.54688	651.20111	-871.01129	463.88153	487.72644	-885.58594	463.78549	231.47046	-932.69775	437.47314	61.53713	-981.68701	471.66232	46.32947	-934.05872	290.49347	41.12975	-1194.86023	518.04681	624.90021	-1183.94214	522.48712	497.16455	-1182.81885	708.91327	308.29593	-1145.99097	841.98657	174.34697	-1104.07996	885.83759	187.13033	-1121.65723	766.81506	39.33795	-1008.07410	589.10498	1691.44275																											 
